HIERARCHY
ROOT Hips
{
	OFFSET 0.000000 0.000000 0.000000
	CHANNELS 6 Xposition Yposition Zposition Zrotation Yrotation Xrotation 
	JOINT LowerBack
	{
		OFFSET 0.000000 0.000000 0.000000
		CHANNELS 3 Zrotation Yrotation Xrotation
		JOINT Spine
		{
			OFFSET 0.028270 2.035590 -0.193380
			CHANNELS 3 Zrotation Yrotation Xrotation
			JOINT Spine1
			{
				OFFSET 0.056720 2.048850 -0.042750
				CHANNELS 3 Zrotation Yrotation Xrotation
				JOINT Neck
				{
					OFFSET 0.000000 0.000000 0.000000
					CHANNELS 3 Zrotation Yrotation Xrotation
					JOINT Neck1
					{
						OFFSET -0.054170 1.746240 0.172020
						CHANNELS 3 Zrotation Yrotation Xrotation
						JOINT Head
						{
							OFFSET 0.104070 1.761360 -0.123970
							CHANNELS 3 Zrotation Yrotation Xrotation
							End Site
							{
								OFFSET 0.000000 0.000000 0.000000
							}
						}
					}
				}
				JOINT LeftShoulder
				{
					OFFSET 0.000000 0.000000 0.000000
					CHANNELS 3 Zrotation Yrotation Xrotation
					JOINT LeftArm
					{
						OFFSET 3.362410 1.200890 -0.311210
						CHANNELS 3 Zrotation Yrotation Xrotation
						JOINT LeftForeArm
						{
							OFFSET 4.983000 -0.000000 -0.000000
							CHANNELS 3 Zrotation Yrotation Xrotation
							JOINT LeftHand
							{
								OFFSET 3.483560 -0.000000 -0.000000
								CHANNELS 3 Zrotation Yrotation Xrotation
								JOINT LeftFingerBase
								{
									OFFSET 0.000000 0.000000 0.000000
									CHANNELS 3 Zrotation Yrotation Xrotation
									JOINT LeftHandIndex1
									{
										OFFSET 0.715260 -0.000000 -0.000000
										CHANNELS 3 Zrotation Yrotation Xrotation
										End Site
										{
											OFFSET 0.000000 0.000000 0.000000
										}
									}
								}
								JOINT LThumb
								{
									OFFSET 0.000000 0.000000 0.000000
									CHANNELS 3 Zrotation Yrotation Xrotation
									End Site
									{
										OFFSET 0.000000 0.000000 0.000000
									}
								}
							}
						}
					}
				}
				JOINT RightShoulder
				{
					OFFSET 0.000000 0.000000 0.000000
					CHANNELS 3 Zrotation Yrotation Xrotation
					JOINT RightArm
					{
						OFFSET -3.136600 1.374050 -0.404650
						CHANNELS 3 Zrotation Yrotation Xrotation
						JOINT RightForeArm
						{
							OFFSET -5.241900 -0.000000 -0.000000
							CHANNELS 3 Zrotation Yrotation Xrotation
							JOINT RightHand
							{
								OFFSET -3.444170 -0.000000 -0.000000
								CHANNELS 3 Zrotation Yrotation Xrotation
								JOINT RightFingerBase
								{
									OFFSET 0.000000 0.000000 0.000000
									CHANNELS 3 Zrotation Yrotation Xrotation
									JOINT RightHandIndex1
									{
										OFFSET -0.622530 -0.000000 -0.000000
										CHANNELS 3 Zrotation Yrotation Xrotation
										End Site
										{
											OFFSET 0.000000 0.000000 0.000000
										}
									}
								}
								JOINT RThumb
								{
									OFFSET 0.000000 0.000000 0.000000
									CHANNELS 3 Zrotation Yrotation Xrotation
									End Site
									{
										OFFSET 0.000000 0.000000 0.000000
									}
								}
							}
						}
					}
				}
			}
		}
	}
}
}
MOTION
Frames: 10
Frame Time: 0.008333
2.255846 16.893034 3.338688 -44.292325 -53.400675 37.409685 7.429923 -4.426888 7.127479 0.911308 -4.715492 -1.462573 -5.839843 -4.697740 -0.830859 6.512628 -14.721380 -3.053048 -0.256499 -0.081212 1.013560 0.000000 0.000000 0.000000 14.160085 1.905167 -1.075621 -30.145134 -0.265645 40.922566 179.875923 -80.479562 179.996452 -9.558951 -8.853508 0.800845 0.383056 0.378003 -0.000000 0.000000 0.000000 0.000000 0.000000 0.000000 0.000000 -1.707427 -12.302749 -0.956806 58.215992 -28.063059 38.588619 0.556543 67.981762 -0.004472 2.040706 5.491314 0.101250 -0.058121 -0.039189 -0.000000 0.000000 0.000000 0.000000 0.000000 0.000000 0.000000 
2.257546 16.916672 3.324326 -43.720575 -52.063586 34.920992 7.153214 -4.893242 8.290115 0.837096 -5.140912 -1.158457 -5.962734 -5.107299 -0.865130 6.949133 -14.986167 -2.859855 -0.368714 -0.090789 1.042566 0.000000 0.000000 0.000000 14.304948 1.750101 -1.190321 -29.949547 -0.413704 41.510188 179.821779 -80.432693 179.994032 -9.624962 -8.982016 0.818592 0.396266 0.381506 -0.000000 0.000000 0.000000 0.000000 0.000000 0.000000 0.000000 -0.707974 -12.932137 -1.162732 58.222293 -28.725509 38.661165 0.557317 67.470871 -0.005469 2.349998 5.557096 0.117870 -0.066984 -0.036142 -0.000000 0.000000 0.000000 0.000000 0.000000 0.000000 0.000000 
2.252977 16.943870 3.316320 -43.205301 -50.732277 32.695362 6.900150 -5.303523 9.224228 0.740510 -5.532229 -0.950206 -6.078385 -5.485272 -0.907527 7.343135 -15.275961 -2.684653 -0.481747 -0.100106 1.068256 0.000000 0.000000 0.000000 14.334820 1.607275 -1.280297 -29.832291 -0.707752 42.191184 179.771046 -80.595900 179.991985 -9.737774 -9.085007 0.837943 0.408150 0.383328 -0.000000 0.000000 0.000000 0.000000 0.000000 0.000000 0.000000 0.259483 -13.601558 -1.374727 58.241926 -29.528809 38.594581 0.566550 66.858014 -0.006435 2.671534 5.597893 0.134790 -0.075104 -0.032484 -0.000000 0.000000 0.000000 0.000000 0.000000 0.000000 0.000000 
2.241496 16.974140 3.312908 -43.006522 -49.417553 30.999397 6.750591 -5.631345 9.840864 0.671814 -5.852803 -0.797944 -6.191322 -5.794728 -0.930353 7.699247 -15.593885 -2.534843 -0.593935 -0.109313 1.093558 0.000000 0.000000 0.000000 14.265339 1.462908 -1.353520 -29.787417 -1.122780 42.924444 179.730782 -80.969236 179.990454 -9.890152 -9.162822 0.858336 0.417823 0.383208 -0.000000 0.000000 0.000000 0.000000 0.000000 0.000000 0.000000 1.200309 -14.259611 -1.585283 58.293253 -30.445484 38.372799 0.585809 66.145492 -0.007253 2.989772 5.607383 0.150825 -0.081711 -0.028533 -0.000000 0.000000 0.000000 0.000000 0.000000 0.000000 0.000000 
2.222458 17.006931 3.311106 -42.818029 -48.232290 29.742480 6.511215 -5.878444 10.019946 0.594854 -6.101802 -0.724354 -6.299395 -6.034158 -0.927787 8.027188 -15.944969 -2.426039 -0.701783 -0.118066 1.115537 0.000000 0.000000 0.000000 14.131040 1.305004 -1.410479 -29.794206 -1.605465 43.676735 179.704484 -81.537529 179.989449 -10.069743 -9.218408 0.878687 0.424638 0.380977 -0.000000 0.000000 0.000000 0.000000 0.000000 0.000000 0.000000 2.127361 -14.900621 -1.787387 58.396289 -31.462820 37.995691 0.616140 65.334870 -0.007815 3.287712 5.583153 0.164879 -0.086100 -0.024496 -0.000000 0.000000 0.000000 0.000000 0.000000 0.000000 0.000000 
2.198137 17.041103 3.310102 -42.458963 -47.204786 28.765311 6.095296 -6.064557 9.806398 0.491104 -6.294969 -0.723820 -6.400563 -6.218601 -0.907946 8.325183 -16.319073 -2.369534 -0.805207 -0.126207 1.130776 0.000000 0.000000 0.000000 13.941054 1.097574 -1.450121 -29.858359 -2.071814 44.387089 179.692605 -82.276520 179.988966 -10.272762 -9.251343 0.898796 0.428575 0.376755 -0.000000 0.000000 0.000000 0.000000 0.000000 0.000000 0.000000 3.040526 -15.509498 -1.967922 58.563534 -32.546950 37.447815 0.658952 64.429099 -0.008077 3.552405 5.526258 0.175959 -0.087916 -0.020513 -0.000000 0.000000 0.000000 0.000000 0.000000 0.000000 0.000000 
2.170428 17.075342 3.311023 -41.953908 -46.348283 28.058024 5.541331 -6.197242 9.249290 0.367697 -6.436835 -0.788326 -6.496567 -6.352274 -0.866407 8.577802 -16.707722 -2.382652 -0.902621 -0.133343 1.133952 0.000000 0.000000 0.000000 13.635976 0.922017 -1.456594 -29.929290 -2.598248 45.030788 179.695077 -83.171082 179.989025 -10.452490 -9.265513 0.914872 0.428354 0.371303 -0.000000 0.000000 0.000000 0.000000 0.000000 0.000000 0.000000 3.918408 -16.079167 -2.119062 58.792133 -33.627366 36.749064 0.714684 63.417047 -0.008031 3.759578 5.447057 0.183165 -0.086935 -0.016621 -0.000000 0.000000 0.000000 0.000000 0.000000 0.000000 0.000000 
2.142235 17.107784 3.314025 -41.466976 -45.674547 27.665130 4.946915 -6.271539 8.448464 0.240533 -6.519429 -0.906534 -6.595849 -6.428500 -0.824462 8.785286 -17.086405 -2.462162 -0.998901 -0.139802 1.124959 0.000000 0.000000 0.000000 13.242495 0.710436 -1.439946 -30.054155 -3.013601 45.538435 179.709345 -84.174093 179.989582 -10.624433 -9.258532 0.927909 0.424867 0.364625 -0.000000 0.000000 0.000000 0.000000 0.000000 0.000000 0.000000 4.761297 -16.567828 -2.221838 59.075317 -34.666960 35.903581 0.785599 62.315276 -0.007698 3.913035 5.350609 0.186795 -0.083254 -0.012863 -0.000000 0.000000 0.000000 0.000000 0.000000 0.000000 0.000000 
2.116039 17.136669 3.320837 -41.247141 -45.184331 27.667188 4.485102 -6.276198 7.509487 0.141467 -6.532512 -1.063793 -6.707595 -6.437911 -0.789633 8.936866 -17.435559 -2.610286 -1.096048 -0.145590 1.101887 0.000000 0.000000 0.000000 12.721215 0.508336 -1.394849 -30.221622 -3.322074 45.879320 179.732307 -85.253692 179.990601 -10.764818 -9.233389 0.936106 0.417895 0.357313 -0.000000 0.000000 0.000000 0.000000 0.000000 0.000000 0.000000 5.548529 -16.950139 -2.266102 59.396168 -35.599358 34.946094 0.872405 61.121487 -0.007138 4.008344 5.248964 0.187340 -0.077209 -0.009189 -0.000000 0.000000 0.000000 0.000000 0.000000 0.000000 0.000000 
2.094767 17.160129 3.333047 -41.461765 -44.819946 27.967613 4.302062 -6.219545 6.634241 0.094880 -6.487618 -1.225854 -6.836627 -6.391937 -0.776510 9.026642 -17.732970 -2.821366 -1.195811 -0.150741 1.063814 0.000000 0.000000 0.000000 12.045815 0.330028 -1.319173 -30.433712 -3.512760 46.021792 179.758306 -86.375881 179.991985 -10.860645 -9.193948 0.938949 0.407948 0.350009 -0.000000 0.000000 0.000000 0.000000 0.000000 0.000000 0.000000 6.261250 -17.210219 -2.246756 59.739665 -36.369827 33.911614 0.973897 59.834891 -0.006471 4.050810 5.151699 0.185294 -0.069604 -0.005526 -0.000000 0.000000 0.000000 0.000000 0.000000 0.000000 0.000000 
